<?xml version="1.0" standalone="no"?><!DOCTYPE svg PUBLIC "-//W3C//DTD SVG 1.1//EN" "http://www.w3.org/Graphics/SVG/1.1/DTD/svg11.dtd"><svg t="1695622584663" class="icon" viewBox="0 0 1024 1024" version="1.1" xmlns="http://www.w3.org/2000/svg" p-id="20054" xmlns:xlink="http://www.w3.org/1999/xlink" width="200" height="200"><path d="M292.571429 73.142857a219.428571 219.428571 0 0 0-219.428572 219.428572v438.857142a219.428571 219.428571 0 0 0 219.428572 219.428572h438.857142a219.428571 219.428571 0 0 0 219.428572-219.428572V292.571429a219.428571 219.428571 0 0 0-219.428572-219.428572H292.571429z m0-73.142857h438.857142a292.571429 292.571429 0 0 1 292.571429 292.571429v438.857142a292.571429 292.571429 0 0 1-292.571429 292.571429H292.571429a292.571429 292.571429 0 0 1-292.571429-292.571429V292.571429a292.571429 292.571429 0 0 1 292.571429-292.571429z" fill="#186DD5" p-id="20055"></path><path d="M219.428571 365.714286m36.571429 0l438.857143 0q36.571429 0 36.571428 36.571428l0 0q0 36.571429-36.571428 36.571429l-438.857143 0q-36.571429 0-36.571429-36.571429l0 0q0-36.571429 36.571429-36.571428Z" fill="#186DD5" p-id="20056"></path><path d="M219.428571 548.571429m36.571429 0l219.428571 0q36.571429 0 36.571429 36.571428l0 0q0 36.571429-36.571429 36.571429l-219.428571 0q-36.571429 0-36.571429-36.571429l0 0q0-36.571429 36.571429-36.571428Z" fill="#186DD5" p-id="20057"></path></svg>