<?xml version="1.0" standalone="no"?><!DOCTYPE svg PUBLIC "-//W3C//DTD SVG 1.1//EN" "http://www.w3.org/Graphics/SVG/1.1/DTD/svg11.dtd"><svg t="1695623007349" class="icon" viewBox="0 0 1024 1024" version="1.1" xmlns="http://www.w3.org/2000/svg" p-id="4182" xmlns:xlink="http://www.w3.org/1999/xlink" width="200" height="200"><path d="M407.14415 189.702591c28.538655-55.500362 56.892991-111.103122 85.759322-166.429405 7.843778-15.021961 20.418399-29.378328 37.959381-20.582238 16.619389 8.355774 6.195151 25.702197 1.955824 38.246098-19.384167 57.404987-30.842636 117.533791-58.736176 172.030641-45.731479 23.633733-51.066477 21.780308-66.938351-23.265096" fill="#757575" p-id="4183"></path><path d="M805.180045 836.68116c6.604748 45.977237 12.933018 91.974953 19.967843 137.880511 2.969577 19.486566 0.686075 39.853765-19.476326 44.134051-22.251344 4.720603-20.582237-20.080481-24.995643-33.279737-17.489782-52.285027-33.115898-105.184449-49.428089-157.868833-10.219439-25.599798 4.823002-37.437144 26.091313-40.048324 35.245802-4.331486 43.796134 21.135193 47.840902 49.182332" fill="#474747" p-id="4184"></path><path d="M289.794677 557.602405c72.457668 45.649559 74.188214 49.35641 47.984261 127.271954-11.222951 33.412856-24.371007 66.170357-36.65891 99.224816-9.144248 0.788474-17.407862-1.372149-24.575806-7.270342-16.998266-33.279737-36.986588-65.80172-28.180258-105.983163 13.260695-19.660645 4.536284-41.522872 6.102992-62.340628 1.802226-23.981891 4.495324-47.124108 35.327721-50.892398" fill="#6A6A6A" p-id="4185"></path><path d="M418.715259 794.062617c82.32895-73.194942 84.78653-73.522619 171.836082-10.280879 23.131977 16.793467 45.188763 35.061483 67.747305 52.653664a30.525199 30.525199 0 0 1-13.414294 13.291415c-27.985699 4.177887-55.490122 14.100369-84.356454 6.748106-19.076969-16.762748-40.744638-23.684933-66.661873-24.432447-29.716245-0.849913-61.97199-2.119663-75.161006-37.979859" fill="#686868" p-id="4186"></path><path d="M407.14415 189.702591c16.711548 23.828292 41.983668 23.101258 66.928111 23.275336-2.283502 38.481616-15.339399 73.829817-31.794949 108.143786-49.448569 33.310457-76.758434 29.931284-99.296495-12.267423 15.667076-42.802862 38.655695-81.653115 64.163333-119.151699" fill="#848484" p-id="4187"></path><path d="M138.970909 332.8669l128.941061-10.721195c14.817163 19.312487 10.547117 44.082852 18.728812 65.310204-6.727627 27.105066-35.4506 17.366903-50.6876 30.218001-41.143995 16.793467-72.027591 0.921593-97.934586-30.750477-4.300766-18.104177-32.696062-36.617951 0.952313-54.056533" fill="#888888" p-id="4188"></path><path d="M365.068322 921.662248c-47.584904 23.367495-95.210768 46.622352-142.734232 70.133206-17.028985 8.427453-37.170906 14.469006-48.11738-3.235814-12.287903-19.896163 12.502941-25.220921 23.213897-33.484535 33.658614-25.937715 68.873696-49.847926 103.484622-74.546612 62.821904-7.208903 66.016758-5.150679 64.153093 41.133755" fill="#474747" p-id="4189"></path><path d="M116.05397 514.973621c-33.771253-36.310753-67.522027-72.611266-101.31376-108.88106-11.632548-12.482461-21.114713-27.514663-9.318326-42.639023 15.841155-20.30576 28.487455 0.563196 39.433928 8.499133 35.583719 25.804596 69.836248 53.452378 104.600774 80.383365 17.131385 53.329499 12.892058 61.265436-33.402616 62.627345" fill="#454545" p-id="4190"></path><path d="M676.986498 666.176267c-35.552999-56.555073 0.102399-84.356454 44.011173-108.809381 31.293193-11.704228 58.818095-9.287607 78.949776 20.991835 9.994161 22.486862-6.481869 38.706894-13.526933 57.179708l-3.215335 28.968731c-35.061483 22.640461-70.655442 11.458469-106.218681 1.669107" fill="#636363" p-id="4191"></path><path d="M289.794677 557.602405c-24.08429 35.778277 9.277367 87.141712-32.132866 118.219866-11.980705 6.123472-16.977786-1.658867-21.360471-10.700716-3.870689-28.743453-31.057675-41.686711-43.765415-64.450051 1.044472-33.320697-16.363391-70.85 21.790548-95.743243 30.740237 9.574324 52.285027 32.296705 75.468204 52.674144" fill="#5B5B5B" p-id="4192"></path><path d="M850.297129 352.978101c45.393561 8.048576 90.899762 15.554437 136.119245 24.473407 15.349639 3.010536 35.686118 6.635468 34.928364 26.664749-0.931833 25.057082-23.951171 15.933314-37.600983 16.025473-48.07642 0.317437-96.15284-1.597427-144.219021-2.662378-22.978378-25.927475-18.564973-47.287946 10.772395-64.511491" fill="#474747" p-id="4193"></path><path d="M418.715259 794.062617c47.431305 12.61558 100.627685 6.38971 140.798887 42.864301-4.464605 27.033386-25.538358 19.087209-42.372785 20.100961l-55.991878 20.141921c-18.96433-6.901705-38.993612-3.583972-58.418738-5.980113-21.52431-2.641899-37.91842-10.721195-40.068804-35.174122 15.411078-18.349935 35.041003-31.057675 56.043078-41.952948" fill="#5B5B5B" p-id="4194"></path><path d="M676.986498 666.176267c34.969324-28.292896 70.532563-19.281768 106.218681-1.669107l10.966953 85.851482c-36.392672 14.387086-67.931623 6.123472-95.558925-20.459359-12.554141-19.435366-18.99505-40.939197-21.626709-63.723016" fill="#575757" p-id="4195"></path><path d="M214.326473 504.928261c-0.573435 33.433336 4.853722 68.238821-21.790548 95.753483l-76.481955-85.718363c27.258665-12.287903 25.394999-40.079043 33.402616-62.627345 25.958195 12.195744 45.239963 32.614142 64.869887 52.592225" fill="#4E4E4E" p-id="4196"></path><path d="M667.125456 416.977595c-29.388568-0.204798-63.968775 13.250455-77.26019-29.316888 8.427453-34.21157-23.101258-73.973176 14.509966-104.119497 30.002963-12.830619 43.519656 15.339399 64.153093 25.753396l21.739348 10.301359c0.440317 34.395888 11.181992 71.239117-23.142217 97.38163" fill="#646464" p-id="4197"></path><path d="M362.661941 836.015565c33.689334 11.673508 72.672706 10.680236 98.487542 41.164475-32.030467 14.827403-64.050694 29.644566-96.070921 44.482208-11.704228-28.815132-41.676471-29.14281-64.163333-41.133755l61.746712-44.512928M698.623447 729.899283c32.87014 2.027504 68.566498-9.082808 95.548685 20.449119l11.007913 86.332758c-21.053274-31.979267-44.103332-47.984261-73.932215-9.123768-17.223544-30.443279-29.777685-62.432787-32.624383-97.658109" fill="#505050" p-id="4198"></path><path d="M539.945661 234.850394c-10.291119-21.452631-19.251048-43.03838-6.481869-66.723313 23.889731-6.30779 28.067618-55.950918 66.538994-30.197521l33.586935 85.503324c-18.319215 17.080185-35.532519 35.860197-61.849111 40.908477-17.817459-2.058224-24.606526-15.974274-31.794949-29.490967" fill="#646464" p-id="4199"></path><path d="M289.948276 772.691905l11.161512 11.40727c0.511996 46.376594-36.208354 63.026702-67.296749 84.172135-19.804004 4.894681-35.41988 1.064952-42.557104-20.408159 1.013752-30.699277 8.550332-59.780648 22.015827-87.356749 28.835612-16.45555 50.769519 10.321838 76.676514 12.185503" fill="#5F5F5F" p-id="4200"></path><path d="M235.953182 417.68415l43.355818-32.358144c0.307198-23.183177 12.943258-34.365169 35.256041-36.116195 38.174418 6.635468 82.687347-15.472518 113.468544 24.883003-5.160919 32.90086-26.685229 44.195491-57.445946 43.980453-44.871326-0.337917-89.752891-0.286718-134.634457-0.389117" fill="#9A9A9A" p-id="4201"></path><path d="M289.948276 772.691905c-32.306945 38.358737-52.428386 0.122879-76.666275-12.185503 2.836458-32.9623 10.239919-64.818688 23.019339-95.384847 7.116744 3.573732 14.233488 7.126984 21.360471 10.690476 15.20628 30.822157 34.12965 60.395043 32.286465 96.879874" fill="#4E4E4E" p-id="4202"></path><path d="M914.75742 524.619625c-15.20628 17.7765-30.924556 34.877164-54.128213 42.444465-36.382433-2.795498-45.997717-31.723269-57.507385-58.797616-0.440317-5.468117 1.023992-10.373038 4.413405-14.704524l30.689037-22.906699c71.546315-10.311599 86.189399 0 76.533156 53.964374" fill="#616161" p-id="4203"></path><path d="M428.033585 374.092814c-39.20865-1.382389-79.205774 5.887953-116.991076-10.772395-18.575213-19.670885 2.611179-30.514959 9.881522-44.451488l22.056786-10.014641c31.282953 18.657133 66.098678 8.87801 99.286255 12.267423l-14.233487 52.971101" fill="#919191" p-id="4204"></path><path d="M807.842424 504.068107c24.708925 15.052681 40.908477 37.222106 52.786783 63.006223-20.551518 27.350824-44.011172 51.547753-74.208693 68.453859l-1.075192-56.95443c-24.821564-34.569967-7.372742-56.421954 22.497102-74.505652" fill="#505050" p-id="4205"></path><path d="M785.65252 417.213114l-64.665089 0.020479c-36.68963-50.6364-29.286169-79.093135 22.507342-86.476116 14.929802-0.143359 29.757205 0.327677 42.915501 8.81657 24.678205 26.122034 27.85258 52.039269-0.757754 77.639067" fill="#545454" p-id="4206"></path><path d="M688.281129 861.297925c26.203953 31.68231 40.754878 87.141712 22.220624 103.423183-24.176449 21.237592-56.718912-25.077562-86.07676-41.502392-1.505268-44.113572 27.565862-56.729152 63.856136-61.920791" fill="#636363" p-id="4207"></path><path d="M570.153422 255.852468c16.035713-20.797276 29.388568-46.84763 63.456779-32.419584l34.918124 85.861722c-21.708629 1.535988-40.263362-5.324758-55.469642-20.991834-27.688741 6.860746-47.328906 3.092456-42.905261-32.460544" fill="#545454" p-id="4208"></path><path d="M743.494773 330.757477c-35.000043 21.677909-18.227056 56.831551-22.497102 86.486356l-53.861975-0.266238c5.488597-32.97254-15.15508-72.16071 23.131977-97.38163 18.493294 0.153599 36.802269 1.126391 53.2271 11.161512" fill="#5D5D5D" p-id="4209"></path><path d="M570.153422 255.852468c10.362798 16.025473 26.58283 24.299328 42.905261 32.450304l-23.193417 99.347695c-22.527822-49.008253-37.048027-100.648165-49.919605-152.800073l30.207761 20.991834z" fill="#707070" p-id="4210"></path><path d="M517.141361 857.027879c14.120848-6.696907 28.251937-13.383574 42.362545-20.090721l85.257567 1.136631c2.969577 51.353194-11.059113 62.719505-67.583466 54.783567l-60.036646-35.829477" fill="#494949" p-id="4211"></path><path d="M577.188247 892.847116c30.893836-7.946177 50.462321-29.869844 67.583466-54.773327l13.516693-1.638387 30.002963 24.862523c-15.1346 26.982187-40.806078 43.110059-63.876615 61.910551l-47.226507-30.36136" fill="#545454" p-id="4212"></path><path d="M785.65252 417.213114l0.767994-77.639067c21.892947 1.597427 43.888293 2.734058 63.876615 13.404054l-10.772395 64.501251-53.861974-0.266238" fill="#4C4C4C" p-id="4213"></path><path d="M320.913791 318.858691c6.809546 17.059705-8.325054 29.265689-9.871282 44.461728-10.588076 7.331782-21.165913 14.673804-31.733509 22.015826-32.87014-15.841155-52.663904-34.027251-11.40727-63.20078 17.6741-1.085431 35.348201-2.170863 53.012061-3.276774" fill="#6E6E6E" p-id="4214"></path><path d="M914.75742 524.619625c-7.014345-44.175011-36.73059-56.196676-76.533156-53.964374 42.403505-18.759532 85.144927-8.601532 133.047269-4.894681-13.619092 29.962003-35.143402 44.33885-56.514113 58.859055" fill="#707070" p-id="4215"></path><path d="M600.002786 137.92956c-24.340288 5.294038-39.741126 30.238481-66.518514 30.197521 2.744298-10.1068 4.311006-20.735836 8.519613-30.187281 8.253375-18.605933 7.249863-52.121188 26.162993-52.633184 25.057082-0.686075 23.101258 33.095419 31.835908 52.622944" fill="#737373" p-id="4216"></path><path d="M807.842424 504.068107c-13.547413 23.019338-23.285576 47.175307-22.486862 74.515892l-64.368131-21.217113c28.845852-21.278552 57.701944-42.526384 86.547796-63.794696 0.071679 3.502052 0.174079 6.993865 0.307197 10.495917" fill="#707070" p-id="4217"></path><path d="M191.245696 847.873391l42.567343 20.397919c-12.431262 18.308975-28.978971 30.41256-52.162148 35.44036-7.229383-21.299032 0.849913-38.614735 9.594805-55.838279" fill="#727272" p-id="4218"></path><path d="M138.970909 332.8669l-0.952313 54.046293c-19.486566-11.632548-40.120003-22.036306-51.650152-43.622055 17.069945-17.028985 35.532519-9.809843 52.602465-10.424238" fill="#9A9A9A" p-id="4219"></path></svg>